<?xml version="1.0" encoding="utf-8"?>
<!-- Generator: Adobe Illustrator 18.0.0, SVG Export Plug-In . SVG Version: 6.00 Build 0)  -->
<!DOCTYPE svg PUBLIC "-//W3C//DTD SVG 1.1//EN" "http://www.w3.org/Graphics/SVG/1.1/DTD/svg11.dtd">
<svg version="1.1" id="Layer_1" xmlns="http://www.w3.org/2000/svg" xmlns:xlink="http://www.w3.org/1999/xlink" x="0px" y="0px"
	 viewBox="0 0 64 64" enable-background="new 0 0 64 64" xml:space="preserve">
<g>
	<g>
		<g>
			<circle fill="#28436B" cx="32" cy="32" r="32"/>
		</g>
	</g>
	<g>
		<g>
			<path fill="#FFCE43" d="M44.3,39.8c7.9-7.9,7.9-20.8,0-28.7c0.4-0.4,0.4-1.1,0-1.5c-0.4-0.4-1.1-0.4-1.5,0L14,38.4
				c-0.4,0.4-0.4,1.1,0,1.5c0.2,0.2,0.5,0.3,0.7,0.3s0.5-0.1,0.7-0.3l0.1-0.1c3.8,3.7,8.7,5.8,14,5.9V49h-5.3
				c-2.3,0-4.2,2.2-4.2,4.9h21.1c0-2.7-1.9-4.9-4.2-4.9h-5.3v-3.3C36.5,45.3,40.9,43.3,44.3,39.8z M42.9,12.6
				c7.1,7.1,7.1,18.7,0,25.8c-3.4,3.4-8,5.3-12.9,5.3c-4.8,0-9.4-1.9-12.9-5.3L42.9,12.6z"/>
		</g>
	</g>
	<g>
		<g>
			<circle fill="#49B8EA" cx="30.1" cy="25.6" r="16.2"/>
		</g>
	</g>
	<g>
		<g>
			<circle fill="none" cx="30.1" cy="25.6" r="16.2"/>
		</g>
	</g>
	<g>
		<g>
			<path fill="#F9B01C" d="M41.7,54.7H19.4c-0.3,0-0.6-0.3-0.6-0.6v0c0-0.3,0.3-0.6,0.6-0.6h22.2c0.3,0,0.6,0.3,0.6,0.6v0
				C42.3,54.4,42,54.7,41.7,54.7z"/>
		</g>
	</g>
	<g>
		<g>
			<g>
				<path fill="#40DBBD" d="M30.3,30.6c-1.7,0-3.5,1.2-3.9,3.1c-0.2,0.9,1.2,3.1,1.4,3.8c0.4,1.3,0.4,2.8-0.1,4.1
					c4.9,0.7,10-0.8,13.8-4.5c0.1-0.1,0.1-0.2,0.2-0.2c-2.2-0.5-4.9-1.3-6.1-1.9C34.7,34.4,31.4,30.6,30.3,30.6z"/>
			</g>
		</g>
		<g>
			<g>
				<path fill="#40DBBD" d="M41.5,14.2c-2.8-2.8-6.4-4.4-10.1-4.7c0,1.2-0.1,1.8,0.3,3.1c0.3,1.2,3.1,4.3,3.9,4.5
					c0.8,0.3,2.8-0.2,3.6,0.2c0.8,0.4-0.9,4.5-1.8,5.4c-1.1,1.1,0.5,7.2,1.9,7.6c1.2,0.3,2.4,0,3.7,0c0.8,0,1.6,0.6,2.2,1.4
					C47.4,25.8,46.3,18.9,41.5,14.2z"/>
			</g>
		</g>
		<g>
			<g>
				<path fill="#40DBBD" d="M31,29.2c0.3-0.1,0.5-0.3,0.7-0.5c0.1-0.3,0.1-0.7-0.1-0.9c-0.1-0.2-0.3-0.2-0.5-0.2
					c-0.3,0-0.6,0.1-0.7,0.4c-0.2,0.3-0.2,0.6,0,0.9C30.4,29,30.7,29.3,31,29.2z"/>
			</g>
		</g>
		<g>
			<g>
				<path fill="#40DBBD" d="M27.8,20.9c-0.2-0.8-3.3-3.2-3.7-3.3c-0.3-0.1-1.5,1.2-2,1.6c-0.8,0.7-4-0.7-5.9-1.9
					c-2.8,4.6-3,10.3-0.8,15.1c2-0.2,4.8-1,4.6-1.8c-0.2-1.1-0.6-2.4,0.3-3.3c0.7-0.7,1.8-0.6,2.6-0.6c0.6,0,1.3-0.1,1.8-0.5
					c0.3-0.2,2.9-3.7,3-4.1C28,21.8,27.9,21.3,27.8,20.9z"/>
			</g>
		</g>
	</g>
</g>
</svg>
